[img]http://tvafterdarkonline.com/wp-content/uploads/2012/10/The-Walking-Dead-Season-3-11.jpeg[/img]

[size=200][color=black]TV INFO[/color][/size]

[code]The Walking Dead S03E11 HDTV x264 AAC-V3nom

Format                                   : MPEG-4
Format profile                           : Base Media / Version 2
Codec ID                                 : mp42
File size                                : 119 MiB
Duration                                 : 43mn 25s
Overall bit rate mode                    : Variable
Overall bit rate                         : 382 Kbps
Encoded date                             : UTC 2013-02-25 09:46:54
Tagged date                              : UTC 2013-02-25 10:03:13

Video
ID                                       : 1
Format                                   : AVC
Format/Info                              : Advanced Video Codec
Format profile                           : Main@L2.1
Format settings, CABAC                   : Yes
Format settings, ReFrames                : 4 frames
Codec ID                                 : avc1
Codec ID/Info                            : Advanced Video Coding
Duration                                 : 43mn 24s
Bit rate mode                            : Variable
Bit rate                                 : 286 Kbps
Width                                    : 640 pixels
Height                                   : 256 pixels
Display aspect ratio                     : 16:9
Frame rate mode                          : Variable
Frame rate                               : 23.976 fps
Minimum frame rate                       : 7.992 fps
Maximum frame rate                       : 23.981 fps
Color space                              : YUV
Chroma subsampling                       : 4:2:0
Bit depth                                : 8 bits
Scan type                                : Progressive
Bits/(Pixel*Frame)                       : 0.073
Stream size                              : 87.3 MiB (74%)
Writing library                          : x264 core 112

Audio
ID                                       : 2
Format                                   : AAC
Format/Info                              : Advanced Audio Codec
Format profile                           : LC
Codec ID                                 : 40
Duration                                 : 43mn 25s
Bit rate mode                            : Variable
Bit rate                                 : 96.0 Kbps
Maximum bit rate                         : 123 Kbps
Channel(s)                               : 2 channels
Channel positions                        : Front: L R
Sampling rate                            : 48.0 KHz
Compression mode                         : Lossy
Delay relative to video                  : 167ms
Stream size                              : 29.8 MiB (25%)
Encoded date                             : UTC 2013-02-25 09:46:54
Tagged date                              : UTC 2013-02-25 10:03:11[/code]

[size=200][color=black]SOURCE[/color][/size]

[code]The Walking Dead S03E11 HDTV x264-2HD[ettv](THANKS)[/code]

[size=200][color=black]SCREENSHOTS[/color][/size]

[img]http://img405.imageshack.us/img405/295/thewalkingdeads03e11hdt.jpg[/img]

[img]http://kastatic.com/i2/users/133df62bbf28e62494bb17fe11078f1a.gif[/img][img]http://kastatic.com/i2/users/133df62bbf28e62494bb17fe11078f1a.gif[/img]
